<svg id="visual" viewBox="0 0 960 300" width="960" height="300" xmlns="http://www.w3.org/2000/svg" xmlns:xlink="http://www.w3.org/1999/xlink" version="1.1"><rect x="0" y="0" width="960" height="300" fill="#F9F7FC"></rect><path d="M0 164L22.8 167.7C45.7 171.3 91.3 178.7 137 178.3C182.7 178 228.3 170 274 165.3C319.7 160.7 365.3 159.3 411.2 163.3C457 167.3 503 176.7 548.8 180.2C594.7 183.7 640.3 181.3 686 173.7C731.7 166 777.3 153 823 155.2C868.7 157.3 914.3 174.7 937.2 183.3L960 192L960 301L937.2 301C914.3 301 868.7 301 823 301C777.3 301 731.7 301 686 301C640.3 301 594.7 301 548.8 301C503 301 457 301 411.2 301C365.3 301 319.7 301 274 301C228.3 301 182.7 301 137 301C91.3 301 45.7 301 22.8 301L0 301Z" fill="#fa7268"></path><path d="M0 191L22.8 191.8C45.7 192.7 91.3 194.3 137 195.3C182.7 196.3 228.3 196.7 274 198.5C319.7 200.3 365.3 203.7 411.2 201.3C457 199 503 191 548.8 191.5C594.7 192 640.3 201 686 200.7C731.7 200.3 777.3 190.7 823 181.5C868.7 172.3 914.3 163.7 937.2 159.3L960 155L960 301L937.2 301C914.3 301 868.7 301 823 301C777.3 301 731.7 301 686 301C640.3 301 594.7 301 548.8 301C503 301 457 301 411.2 301C365.3 301 319.7 301 274 301C228.3 301 182.7 301 137 301C91.3 301 45.7 301 22.8 301L0 301Z" fill="#f16367"></path><path d="M0 203L22.8 204C45.7 205 91.3 207 137 203.8C182.7 200.7 228.3 192.3 274 195.5C319.7 198.7 365.3 213.3 411.2 219.5C457 225.7 503 223.3 548.8 221.5C594.7 219.7 640.3 218.3 686 217.5C731.7 216.7 777.3 216.3 823 217.2C868.7 218 914.3 220 937.2 221L960 222L960 301L937.2 301C914.3 301 868.7 301 823 301C777.3 301 731.7 301 686 301C640.3 301 594.7 301 548.8 301C503 301 457 301 411.2 301C365.3 301 319.7 301 274 301C228.3 301 182.7 301 137 301C91.3 301 45.7 301 22.8 301L0 301Z" fill="#e85467"></path><path d="M0 244L22.8 237.3C45.7 230.7 91.3 217.3 137 215C182.7 212.7 228.3 221.3 274 223.7C319.7 226 365.3 222 411.2 218.2C457 214.3 503 210.7 548.8 216C594.7 221.3 640.3 235.7 686 240.3C731.7 245 777.3 240 823 237C868.7 234 914.3 233 937.2 232.5L960 232L960 301L937.2 301C914.3 301 868.7 301 823 301C777.3 301 731.7 301 686 301C640.3 301 594.7 301 548.8 301C503 301 457 301 411.2 301C365.3 301 319.7 301 274 301C228.3 301 182.7 301 137 301C91.3 301 45.7 301 22.8 301L0 301Z" fill="#de4467"></path><path d="M0 258L22.8 255.7C45.7 253.3 91.3 248.7 137 248.8C182.7 249 228.3 254 274 254.5C319.7 255 365.3 251 411.2 249.7C457 248.3 503 249.7 548.8 252.8C594.7 256 640.3 261 686 260C731.7 259 777.3 252 823 248.2C868.7 244.3 914.3 243.7 937.2 243.3L960 243L960 301L937.2 301C914.3 301 868.7 301 823 301C777.3 301 731.7 301 686 301C640.3 301 594.7 301 548.8 301C503 301 457 301 411.2 301C365.3 301 319.7 301 274 301C228.3 301 182.7 301 137 301C91.3 301 45.7 301 22.8 301L0 301Z" fill="#d23467"></path><path d="M0 262L22.8 262C45.7 262 91.3 262 137 262.8C182.7 263.7 228.3 265.3 274 268.7C319.7 272 365.3 277 411.2 278.2C457 279.3 503 276.7 548.8 275.2C594.7 273.7 640.3 273.3 686 272.5C731.7 271.7 777.3 270.3 823 270.3C868.7 270.3 914.3 271.7 937.2 272.3L960 273L960 301L937.2 301C914.3 301 868.7 301 823 301C777.3 301 731.7 301 686 301C640.3 301 594.7 301 548.8 301C503 301 457 301 411.2 301C365.3 301 319.7 301 274 301C228.3 301 182.7 301 137 301C91.3 301 45.7 301 22.8 301L0 301Z" fill="#c62368"></path></svg>